<svg width="214" height="71" viewBox="0 0 214 71" fill="none" xmlns="http://www.w3.org/2000/svg">
<g clip-path="url(#clip0)">
<path fill-rule="evenodd" clip-rule="evenodd" d="M7.56217 28.7852C5.21437 29.7782 3.22682 31.4315 1.85593 33.5318C0.543734 35.6626 -0.123135 38.1096 -0.0681428 40.5918C-0.091022 42.2905 0.21769 43.978 0.841668 45.5652C1.51158 47.144 2.56835 48.5401 3.92018 49.6322C5.40178 50.8684 7.14648 51.7712 9.02941 52.2761C11.0276 52.8268 13.0956 53.1027 15.1727 53.0955C17.2819 53.1025 19.3815 52.8212 21.41 52.2601C23.3053 51.7554 25.0648 50.8563 26.5665 49.6253C28.0026 48.4324 29.1352 46.9332 29.8759 45.2449C30.6553 43.4537 31.0458 41.5257 31.0232 39.5813C31.0582 37.797 30.7022 36.0258 29.9787 34.3853C29.253 32.8409 28.1771 31.4758 26.8315 30.392C25.3989 29.2199 23.7247 28.359 21.9212 27.8671C20.0231 27.3371 18.057 27.0713 16.082 27.0776C13.1473 27.0322 10.2384 27.6152 7.56217 28.7852ZM19.4606 33.5222C20.5436 34.1173 21.416 35.0167 21.963 36.102C22.5356 37.2294 22.8271 38.4717 22.814 39.7286C22.8156 41.0683 22.501 42.3906 21.8943 43.5939C21.317 44.7858 20.3863 45.7832 19.2215 46.4582C18.0567 47.1365 16.7216 47.4891 15.3635 47.4773C14.0602 47.4804 12.7767 47.1686 11.6286 46.5698C10.5045 46.0134 9.58686 45.1309 9.00303 44.0449C8.42181 42.9432 8.12576 41.7206 8.14049 40.4829C8.132 39.1099 8.45669 37.7543 9.08824 36.5258C9.68671 35.3312 10.6283 34.3301 11.7995 33.6433C12.9889 32.9479 14.3545 32.5886 15.7428 32.6056C17.0438 32.5856 18.327 32.902 19.4606 33.5222ZM37.0351 52.5788C37.5152 52.5788 38.6273 52.591 40.3714 52.6156L40.4264 50.2669L41.0569 39.8375L41.5347 34.7515C41.6739 35.5226 41.7753 36.0613 41.8387 36.3673C41.9021 36.6733 41.9591 36.9305 42.0096 37.1386L43.3774 42.5183L45.7149 52.6167C47.3325 52.5921 48.5332 52.5798 49.3167 52.5798C49.9357 52.5798 51.0669 52.5921 52.7102 52.6167L56.2797 42.1873L58.7672 34.7141C58.7925 35.6077 58.8051 36.3054 58.8051 36.8071C58.8051 37.958 58.7282 40.6051 58.5742 44.7485C58.4203 48.8918 58.292 51.5144 58.1894 52.6161C59.6052 52.5916 60.7996 52.5793 61.7726 52.5793C62.4422 52.5793 63.6113 52.5916 65.2799 52.6161C65.2546 51.429 65.242 50.6089 65.242 50.1559C65.242 47.9772 65.3241 43.9867 65.4883 38.1843C65.5641 35.2221 65.7221 31.6784 65.9621 27.5532C63.7632 27.5778 62.0444 27.59 60.8056 27.59C58.986 27.59 57.1281 27.5778 55.2319 27.5532C54.9156 28.6795 54.6655 29.5158 54.4815 30.0621C54.2975 30.6083 53.8641 31.7617 53.1813 33.5222C52.4975 35.2848 51.9278 36.8577 51.4722 38.2409C51.0167 39.6242 50.5102 41.2766 49.9528 43.1983C49.4107 40.3952 49.0043 38.4151 48.7334 37.2582C48.4626 36.1013 48.1035 34.7312 47.656 33.148C47.2085 31.5629 46.9279 30.498 46.8143 29.9532C46.7007 29.4083 46.5618 28.6089 46.3976 27.5548C44.1254 27.5794 42.4384 27.5916 41.3368 27.5916C40.0046 27.5916 38.1721 27.5794 35.8394 27.5548L35.2567 36.0379L34.0913 48.9089L33.6212 52.6177C35.2389 52.5932 36.3765 52.5809 37.034 52.5809L37.0351 52.5788ZM73.7332 52.5788C74.5537 52.5788 75.7467 52.591 77.312 52.6156L77.5066 45.2865L77.9145 36.5797C78.5316 37.7691 79.1307 38.8603 79.7115 39.8535C80.5948 41.4211 81.5603 43.062 82.6081 44.7762L85.7889 50.0112C86.1044 50.5503 86.5904 51.4199 87.2468 52.6199C89.3464 52.5953 90.9906 52.583 92.1795 52.583C93.6088 52.583 95.1455 52.5953 96.7896 52.6199L96.9034 48.2315L97.756 33.0284L98.2112 27.5569C96.1655 27.5815 94.9282 27.5938 94.4994 27.5938C93.5648 27.5938 92.3212 27.5815 90.7684 27.5569C90.7684 28.9776 90.6938 31.543 90.5446 35.2533C90.3955 38.9635 90.2489 41.8473 90.1048 43.9045L88.9894 41.8104L80.8968 27.558C78.9471 27.5826 77.4344 27.5948 76.3587 27.5948C74.8521 27.5948 73.1178 27.5826 71.156 27.558V30.4224L70.9488 35.6899L70.2094 48.7632L69.8306 52.6188C71.7364 52.5943 73.0374 52.582 73.7337 52.582L73.7332 52.5788ZM106.419 52.5788L110.304 52.6156C110.304 50.5103 110.342 47.9673 110.418 44.9865C110.494 42.0058 110.621 38.8018 110.799 35.3744C110.938 32.914 111.122 30.3067 111.349 27.5527C108.971 27.5772 107.611 27.5895 107.27 27.5895C106.523 27.5895 105.043 27.5772 102.83 27.5527L102.849 29.9211C102.849 35.2214 102.484 42.7862 101.756 52.6156C104.105 52.591 105.659 52.5788 106.417 52.5788H106.419ZM159.802 52.5788C160.333 52.5788 161.775 52.591 164.129 52.6156C165.302 50.0206 166.438 47.6459 167.537 45.4915H177.081C178.128 48.2214 178.929 50.5961 179.484 52.6156C181.546 52.591 183.108 52.5788 184.172 52.5788C184.64 52.5788 185.968 52.591 188.157 52.6156L187.058 49.9349L181.43 35.2095L178.664 27.5548C177.147 27.5794 175.498 27.5916 173.716 27.5916C172.693 27.5916 171.069 27.5794 168.844 27.5548C168.301 28.658 167.877 29.5026 167.574 30.0888L166.529 32.09L156.723 49.9722L155.149 52.6161C157.287 52.5916 158.837 52.5793 159.799 52.5793L159.802 52.5788ZM171.194 37.4354C171.774 36.287 172.481 34.8147 173.315 33.0182C173.454 33.4584 174.255 35.8351 175.719 40.1482H169.828L171.194 37.4354ZM200.652 52.5788C203.66 52.5788 206.826 52.591 210.15 52.6156L210.567 47.0705C208.859 47.1563 206.343 47.1991 203.018 47.1991C202.361 47.1991 200.945 47.1814 198.77 47.1458L198.846 44.5937L199.417 34.2011L199.874 27.5543C198.195 27.5788 196.906 27.5911 196.01 27.5911C194.684 27.5911 193.163 27.5788 191.447 27.5543C191.447 29.6475 191.38 32.3375 191.247 35.6242C191.113 38.911 190.912 42.2192 190.643 45.5486C190.503 47.3728 190.274 49.7292 189.957 52.6177C193.016 52.5932 196.58 52.5809 200.649 52.5809L200.652 52.5788ZM155.151 64.9095C155.542 64.9166 155.932 64.8774 156.314 64.7926C156.598 64.7292 156.866 64.6118 157.104 64.4473C157.331 64.2743 157.512 64.0512 157.633 63.7966C157.776 63.5126 157.849 63.2 157.846 62.8838C157.855 62.5027 157.731 62.1299 157.495 61.8258C157.239 61.5137 156.886 61.2912 156.489 61.1922C156.799 61.0534 157.062 60.8311 157.246 60.5516C157.41 60.2992 157.497 60.0067 157.497 59.7082C157.495 59.381 157.397 59.0612 157.214 58.7863C157.029 58.4955 156.756 58.2674 156.432 58.1335C156.009 57.9761 155.558 57.9035 155.106 57.92H152.397V64.9143H155.146L155.151 64.9095ZM153.355 58.7479H154.796C155.165 58.7324 155.535 58.7653 155.895 58.8456C156.1 58.9033 156.276 59.0321 156.39 59.2075C156.507 59.3912 156.567 59.6038 156.562 59.8198C156.571 60.0372 156.506 60.2514 156.378 60.4299C156.24 60.6019 156.046 60.7243 155.828 60.7779C155.53 60.8436 155.224 60.8709 154.918 60.8591H153.358V58.7527L153.355 58.7479ZM153.355 61.6838H155.022C155.378 61.6713 155.734 61.7108 156.078 61.8007C156.31 61.8699 156.512 62.0125 156.651 62.2058C156.791 62.4056 156.863 62.6431 156.857 62.8848C156.862 63.0891 156.813 63.291 156.715 63.472C156.631 63.6303 156.505 63.7644 156.351 63.8606C156.182 63.9571 155.995 64.0218 155.801 64.0512C155.586 64.0789 155.369 64.0901 155.152 64.0848H153.356V61.6859L153.355 61.6838ZM159.579 66.9636C159.836 66.9701 160.09 66.9013 160.307 66.7661C160.537 66.6044 160.722 66.391 160.848 66.1442C161.037 65.7715 161.202 65.3879 161.343 64.9955L163.331 59.8491H162.447L161.33 62.7989C161.188 63.1768 161.066 63.5617 160.966 63.9519C160.856 63.5419 160.729 63.1505 160.587 62.7775L159.499 59.847H158.543L160.526 64.9181C160.491 65.0099 160.464 65.0782 160.448 65.1278C160.376 65.3482 160.285 65.5624 160.177 65.7684C160.105 65.8797 160.005 65.9715 159.887 66.0353C159.74 66.105 159.578 66.1379 159.415 66.1309C159.243 66.1269 159.073 66.1012 158.908 66.0545L159.006 66.86C159.189 66.9255 159.382 66.9616 159.577 66.9668L159.579 66.9636ZM170.039 64.9095L172.864 57.9237H171.889L169.941 62.9991C169.794 63.3802 169.664 63.7613 169.552 64.1425C169.45 63.7866 169.324 63.4055 169.173 62.9991L167.299 57.9237H166.266L169.06 64.9095H170.039ZM177.193 64.9095H178.114C178.004 64.7209 177.929 64.5155 177.89 64.3021C177.839 63.7994 177.821 63.2942 177.835 62.7893V61.6501C177.843 61.3857 177.828 61.1211 177.791 60.8591C177.749 60.6457 177.655 60.4453 177.516 60.2751C177.348 60.0977 177.136 59.9655 176.901 59.8913C176.55 59.7788 176.182 59.7272 175.813 59.7386C175.41 59.7315 175.009 59.792 174.628 59.9174C174.323 60.0126 174.052 60.1893 173.845 60.4272C173.648 60.6841 173.515 60.9817 173.457 61.2968L174.323 61.411C174.376 61.1193 174.532 60.8544 174.762 60.6605C175.04 60.4986 175.362 60.424 175.685 60.447C176.046 60.4209 176.405 60.5242 176.694 60.7374C176.787 60.8361 176.858 60.9531 176.901 61.0804C176.944 61.2078 176.959 61.3427 176.945 61.4761C176.945 61.5078 176.943 61.5825 176.94 61.7003C176.425 61.8493 175.896 61.9482 175.36 61.9955C175.095 62.0223 174.833 62.0652 174.573 62.1242C174.346 62.1835 174.131 62.2786 173.936 62.4055C173.745 62.5318 173.588 62.701 173.478 62.8987C173.361 63.1067 173.301 63.3406 173.304 63.5777C173.298 63.7735 173.336 63.9682 173.416 64.1481C173.496 64.328 173.616 64.4888 173.766 64.6191C174.139 64.912 174.612 65.0574 175.09 65.0264C175.423 65.0289 175.754 64.9725 176.066 64.8599C176.413 64.7237 176.734 64.5311 177.015 64.2903C177.035 64.5069 177.095 64.7183 177.192 64.9143L177.193 64.9095ZM176.943 62.6841C176.958 62.9767 176.909 63.2691 176.8 63.5419C176.674 63.7972 176.468 64.0071 176.212 64.1414C175.933 64.2892 175.619 64.3639 175.302 64.3581C175.02 64.3776 174.741 64.2963 174.517 64.1296C174.376 64.0106 174.284 63.8461 174.257 63.6664C174.23 63.4866 174.271 63.3036 174.372 63.1507C174.457 63.0259 174.579 62.9289 174.721 62.872C174.971 62.7855 175.23 62.728 175.493 62.7007C175.987 62.6466 176.472 62.5379 176.94 62.3766V62.6911L176.943 62.6841ZM180.076 64.9095V57.9285H179.19V64.9143H180.076V64.9095ZM185.666 64.9095V59.8539H184.78V62.5656C184.796 62.901 184.746 63.2363 184.635 63.5542C184.537 63.7827 184.363 63.9724 184.14 64.0928C183.914 64.2228 183.656 64.291 183.393 64.2903C183.154 64.2982 182.919 64.2303 182.724 64.0971C182.542 63.9673 182.416 63.7774 182.369 63.5633C182.322 63.2631 182.304 62.9593 182.314 62.6558V59.8539H181.428V62.9894C181.421 63.2574 181.44 63.5255 181.483 63.7901C181.526 64.0191 181.62 64.2362 181.758 64.4264C181.914 64.619 182.119 64.7679 182.354 64.8577C182.626 64.9731 182.92 65.0315 183.217 65.0291C183.546 65.0366 183.872 64.9616 184.162 64.8113C184.453 64.6611 184.698 64.4406 184.875 64.1713V64.9149H185.667L185.666 64.9095ZM190.084 64.0709C189.842 64.2398 189.55 64.3269 189.253 64.3186C189.049 64.3234 188.846 64.2865 188.658 64.2101C188.47 64.1338 188.3 64.0198 188.16 63.8756C187.845 63.5211 187.672 63.0675 187.673 62.5987H191.57C191.573 62.4969 191.575 62.4208 191.575 62.3702C191.621 61.6632 191.383 60.9665 190.911 60.4261C190.693 60.1989 190.427 60.0196 190.132 59.9005C189.836 59.7813 189.518 59.725 189.198 59.7354C188.87 59.7243 188.544 59.7814 188.24 59.9031C187.937 60.0247 187.664 60.208 187.439 60.4406C186.957 60.9913 186.714 61.7019 186.76 62.4231C186.716 63.1233 186.957 63.8123 187.432 64.341C187.878 64.733 188.445 64.9706 189.044 65.0168C189.644 65.0629 190.242 64.915 190.746 64.5962C191.145 64.2949 191.426 63.8711 191.544 63.3941L190.629 63.2846C190.531 63.5949 190.341 63.8701 190.082 64.0757L190.084 64.0709ZM188.182 60.835C188.317 60.7054 188.477 60.6036 188.654 60.5356C188.83 60.4677 189.019 60.435 189.208 60.4395C189.418 60.4338 189.627 60.4755 189.818 60.5615C190.009 60.6475 190.176 60.7753 190.308 60.9349C190.516 61.2141 190.633 61.5478 190.643 61.8925H187.724C187.735 61.4985 187.898 61.1228 188.181 60.8404L188.182 60.835ZM197.238 64.9095V64.088H193.686V57.9285H192.731V64.9143H197.239L197.238 64.9095ZM199.152 58.9102V57.9285H198.267V58.915H199.152V58.9102ZM199.152 64.9095V59.8539H198.267V64.9149H199.152V64.9095ZM201.386 64.9095V62.1508C201.356 61.9152 201.378 61.6761 201.449 61.4488C201.519 61.2216 201.638 61.0111 201.797 60.8308C202.066 60.6004 202.415 60.4763 202.773 60.4827C202.99 60.4778 203.204 60.5313 203.391 60.6375C203.558 60.7313 203.688 60.8776 203.758 61.0523C203.838 61.3059 203.873 61.5712 203.861 61.8364V64.9149H204.746V61.8028C204.755 61.524 204.738 61.2451 204.698 60.969C204.652 60.7415 204.559 60.5257 204.423 60.3354C204.27 60.1414 204.064 59.9922 203.83 59.9041C203.555 59.7924 203.259 59.7364 202.961 59.7397C202.633 59.7256 202.307 59.7951 202.015 59.9414C201.723 60.0877 201.476 60.3056 201.298 60.5735V59.8539H200.501V64.9149H201.387L201.386 64.9095ZM206.993 64.9095V62.9083L207.618 62.3265L209.346 64.9138H210.438L208.24 61.7308L210.237 59.8534H209.091L206.995 61.9122V57.9285H206.109V64.9143H206.995L206.993 64.9095Z" fill="white"/>
<path fill-rule="evenodd" clip-rule="evenodd" d="M136.678 32.3376L149.271 51.1962L160.146 32.3376H136.678Z" fill="#983FB3"/>
<path fill-rule="evenodd" clip-rule="evenodd" d="M113.884 32.2582L126.147 50.9311L136.969 32.2582H113.884Z" fill="url(#paint0_linear)"/>
<path fill-rule="evenodd" clip-rule="evenodd" d="M126.145 50.9313L138.675 69.7333L149.497 50.9313H126.145Z" fill="#015EDF"/>
<path fill-rule="evenodd" clip-rule="evenodd" d="M147.477 13.2168L160.141 32.3332L171.077 13.2168H147.477Z" fill="#E84DB2"/>
<path fill-rule="evenodd" clip-rule="evenodd" d="M149.478 50.9389L136.956 32.0766L126.143 50.9389H149.478Z" fill="url(#paint1_linear)"/>
<path fill-rule="evenodd" clip-rule="evenodd" d="M160.144 32.3375L147.48 13.2168L136.54 32.3375H160.142H160.144Z" fill="#EA4786"/>
</g>
<defs>
<linearGradient id="paint0_linear" x1="118.531" y1="46.4868" x2="125.459" y2="50.8802" gradientUnits="userSpaceOnUse">
<stop stop-color="#65DAFB"/>
<stop offset="1" stop-color="#228EFA"/>
</linearGradient>
<linearGradient id="paint1_linear" x1="142.185" y1="26.309" x2="147.3" y2="29.1684" gradientUnits="userSpaceOnUse">
<stop stop-color="#2B95FC"/>
<stop offset="1" stop-color="#62DAFC"/>
</linearGradient>
<clipPath id="clip0">
<rect width="210.548" height="57.6503" fill="white" transform="translate(0 12.683)"/>
</clipPath>
</defs>
</svg>
